<svg width="1262" height="355" xmlns="http://www.w3.org/2000/svg">
  <g fill="none" fill-rule="evenodd">
    <path d="M817.5997 209.3935c-1.725 9.775-1.7969 22.4889-1.7999 37.7896l-.0001 44.8104 34.6-30.599-7.199-2v-6.601c7 .4 14.199.5 21.099.5 5.6 0 11.3-.2 16.8-.5v6.601l-8.8 2c-13.299 9-26.099 19.5-38.5 30.099 12 13.3 37.401 41 49.6 52.5l4.9743 1.382 8.2255-1.582c1.6875-9.5625 1.793-21.9375 1.7996-36.7954v-47.1537c-.007-14.749-.1145-27.1083-1.7996-36.7509-3.799-.7-7.899-1.6-12-2.3v-6.6c6.8-.4 21.101-2.9 28.5-4.8h9.3c-1.6875 9.5625-1.793 21.9375-1.7996 36.7954v61.0545c.007 14.7481.1145 27.1075 1.7996 36.7501l10.401 2v6.6c-7.701-.199-15.6-.5-23.3-.5-6.2404 0-12.6128.2627-18.9027.4156l.0019.0844c-13.399 0-22 .7-29.2 2.2l-13.6-16.3-16.299-18.599-15.8-18.101.0001 4.5407c.0032 15.195.0765 27.8976 1.7999 37.7593l10.399 2v6.6c-7.699-.2-15.6-.5-23.3-.5-7.7 0-15.599.4-23.3.5l.1-6.9 10.4-2c1.6875-9.5625 1.793-21.9375 1.7996-36.7954v-47.1537c-.007-14.749-.1145-27.1083-1.7996-36.7509-3.799-.7-7.9-1.6-12-2.3v-6.6c6.8-.4 21.1-2.9 28.5-4.8h9.3ZM53.4 250.5937c36.5 0 53.4 24.2 53.4 51.9 0 22.7-14.7 52.1-53.4 52.1-33.2 0-53.4-19.6-53.4-52.1 0-29.9 22.9-51.9 53.4-51.9Zm334.6 0c19.2 0 41.2 11.3 41.2 39.2v5.5h-69.8c0 28.3 10.4 43.2 31.7 43.2 12.7 0 23.1-7.3 32.6-16.7l7.3 6.8c-9 10.9-24.2 26-46.2 26-37.6 0-50.5-27-50.5-47.8 0-37.8 27.8-56.2 53.7-56.2Zm601.8999 0c19.2 0 41.2 11.3 41.2 39.2v5.5h-69.8c0 28.3 10.401 43.2 31.7 43.2 12.701 0 23.1-7.3 32.6-16.7l7.3 6.8c-9 10.9-24.199 26-46.199 26-37.601 0-50.5-27-50.5-47.8 0-37.8 27.799-56.2 53.699-56.2Zm-261.5998-.1c34.6 0 39.6 15.4 39.6 35.6 0 4.55.5915 18.0992 1.2253 32.2717l.0586 1.3097.0881 1.9681.0588 1.3122c.2742 6.121.5452 12.1903.7692 17.5383l9.8 5.2-.1 6.7c-5.6-.3-10.6-.5-15.8-.5-4.8 0-9.7.2-14.5.5l-1.8-21.8h-.4c-6.1 10-14.5 24-39 24-11.5 0-32-5.4-32-27 0-30.4 39-37.8 69.3-37.8v-10c0-11.1-4.1-16.3-20.2-16.3-12.9 0-20.2 3-26.3 5.5v9.8l-6.6 1.8c-2.4-7.5-5.6-14.8-9.5-21.7 11.5-3.8 25.4-8.4 45.3-8.4Zm373.2002 88.2998c4 0 7.3 3.3 7.3 7.3s-3.3 7.301-7.3 7.301-7.3-3.301-7.3-7.301 3.199-7.3 7.3-7.3Zm143.5-56.7002c-.101 4.9-.101 9.801-.101 14.7 3.5 0 9.701-.399 14.601-.599l-2.9 6.9c-3.901-.101-8.5-.301-11.701-.301-.199 3.901-.299 8.2-.299 12.401v16.099c0 10.2 1.799 13.101 6.7 13.101 2.699-.2 5.3-1.401 7.3-3.3l3.299 3.6c-2.099 3.2-7.899 8.7-15.699 8.7-10.7 0-14.6-7.2-14.6-14.2 0-1.436.0232-2.7986.0605-4.1654l.0198-.684c.1635-5.3669.5197-10.9959.5197-21.5516v-10h-7.2v-3.7l7.2-2.3c0-4-.2-8-.4-12l13.2-2.7Zm-42.101 13.2006c10.701 0 23 6.299 23 21.9v3.1h-39c0 15.799 5.801 24.1 17.701 24.1 7.1 0 12.9-4.1 18.2-9.301l4.099 3.801c-5 6.1-13.5 14.5-25.799 14.5-21 0-28.201-15.1-28.201-26.7 0-21.101 15.5-31.4 30-31.4ZM540.9999 250.593l-1.3 17.2.4.201.3238-.3496.6523-.6964c8.193-8.6803 17.9008-16.355 32.3239-16.355 15.3062 0 21.4154 8.2595 25.6007 17.6854l.2675.6097c.0441.1018.088.2038.1318.3059 7.7-9.8 19.2-18.601 33.7-18.601 21 0 29.5 13.301 29.5 31.901v21.7c0 16.099 0 29.5 1.8 39.8l10.4 2v6.599c-2.587-.1514-8.3-.3619-13.968-.4539l-.9705-.0146a311.912 311.912 0 0 0-4.2615-.0315c-6.1 0-11.6.2-16.1.5.4-7.899.9-16.699.9-28.099v-22c0-26.3-4.1-35.6-17.699-35.6-17.801-.101-21.301 17.5-21.301 37.399 0 16.101 0 29.5 1.8 39.8l10.4 2v6.601c-7.7-.2-15.6-.5-23.3-.5-7.7 0-15.599.399-23.3.5v-6.7l10.4-2c1.6724-9.4724 1.7918-21.7022 1.8003-37.7327l.0007-3.7673c0-26.3-4.101-35.6-17.701-35.6-17.7 0-21.299 17.5-21.299 37.399 0 16.101 0 29.5 1.799 39.8l10.4 2v6.601c-7.699-.2-15.6-.5-23.3-.5-7.7 0-15.6.399-23.3.5v-6.601l10.401-2c1.6866-9.5616 1.792-21.9365 1.7986-36.7952l.0004-14.6038c0-9.401-.6-18.8-1.799-28.1-3.801-.7-7.901-1.6-12-2.301l-.101-6.899c6.8-.4 21.1-2.9 28.5-4.801h8.4Zm-284.1996.0015-1.3 17.199.4.2c8.4-9.099 18.3-17.399 33.3-17.399 21 0 29.5 13.3 29.5 31.899l.0005 24.7499c.0068 14.7481.1144 27.1075 1.7995 36.7501l10.4 2v6.6c-2.3652-.1384-7.3437-.3262-12.5115-.4277l-.9706-.018-.9715-.0158c-1.6179-.0243-3.2247-.0385-4.7464-.0385-6.1 0-11.6.2-16.1.5.3-7.9.9-16.699.9-28.1v-22c0-26.3-4.1-35.599-17.7-35.599-18.4 0-22.9 17.5-22.9 37.399l.0005 3.05c.0068 14.7489.1144 27.1074 1.7995 36.75l10.4 2v6.6c-7.7-.2-15.6-.5-23.3-.5-7.7 0-15.6.4-23.3.5v-6.9l10.4-2c1.725-9.775 1.7969-22.4889 1.7999-37.7896l.0001-13.6094c0-9.401-.6-18.801-1.8-28.101-3.8-.7-7.9-1.6-12-2.3v-6.599c6.8-.401 21.1-2.901 28.5-4.8h8.4Zm-110.5004-41.201c-1.65 9.35-1.7875 21.3889-1.799 35.8086l-.0009 1.981v1.0015l-.0001 19.8089c8.4-9.099 18.3-17.4 33.3-17.4 21 0 29.5 13.301 29.5 31.9v21.7c0 16.1 0 29.5 1.8 39.8l10.4 2v6.6c-3.4-.199-12.2-.5-19.2-.5-6.1 0-11.6.2-16.1.5.4-7.9.9-16.699.9-28.1v-22c0-26.3-4.1-35.599-17.7-35.599-18.4 0-22.9 17.5-22.9 37.399 0 16.101 0 29.5 1.8 39.8l10.4 2v6.6c-7.7-.2-15.6-.5-23.3-.5-7.7 0-15.6.4-23.3.5v-6.9l10.4-2c1.6875-9.5625 1.793-21.9375 1.7996-36.713v-47.236c-.007-14.749-.1145-27.1084-1.7996-36.751-3.8-.7-7.9-1.6-12-2.3v-6.6c6.8-.4 21.1-2.9 28.5-4.8h9.3Zm923.3 41.3c-.899 7.901-1.3 16.8-2 26.201l.3.299c3.6-9 14-26.5 32.6-26.5 4 0 8 .901 11.6 2.701-3.7 8.099-6.6 16.5-8.8 25.099l-6.599-1.099v-8.401c-1.301-.7-2.701-1.099-4.101-1.099-6.6 0-22.2 6.599-22.2 41.2 0 11.8.7 23.8 1.4 34.899 4.5.7 8.8 1.3 13.3 2v6.601c-9.1-.301-18.1-.5-27.199-.5-9.5 0-17.7.399-21.801.5v-6.801l10.4-2c1.6875-9.5625 1.793-21.9375 1.7996-36.713l.0004-14.587c0-9.4-.599-18.8-1.8-28.099-3.799-.701-7.9-1.601-12-2.301v-6.6c6.8-.4 21.1-2.9 28.5-4.8h6.6Zm63.2 44.6002-.7 9.6.2.1c4.7-5.1 10.2-9.7 18.6-9.7 11.7 0 16.5 7.4 16.5 17.8v12.1c0 9 0 16.5 1 22.2l5.801 1.1v3.7c-1.2673-.0667-3.8676-.1778-6.6158-.2444l-.8277-.0186-.8295-.0154a149.163 149.163 0 0 0-2.428-.0216c-3.4 0-6.5.1-9 .3.201-4.4.5-9.3.5-15.7v-12.3c0-14.7-2.299-19.9-9.9-19.9-10.3 0-12.8 9.8-12.8 20.9 0 9 0 16.5 1 22.2l5.8 1.1v3.7c-4.3-.1-8.699-.3-13-.3-4.3 0-8.699.2-13 .3v-3.7l5.8-1.1c.9063-5.1656.9912-11.8096.9992-19.7085l.0008-8.9915c0-5.3-.3-10.5-1-15.7-2.1-.4-4.4-.9-6.699-1.3v-3.7c5.399-.5 10.699-1.4 15.899-2.7h4.7ZM53.3 262.3937c-21.8 0-29.4 18.4-29.4 40.1 0 22.7 10.2 40.3 29.4 40.3 16.5-.1 29.4-13.1 29.4-40.3 0-23.8-11.6-40.1-29.4-40.1Zm692.4001 38.1h-5.4c-13.1 0-39.9 5.2-39.9 23.5 0 7.3 5.4 14.5 17.2 14.5 16.7 0 27.2-14.5 28.1-38Zm456.9002.8002c-9.6 0-14.1 6.5-15.1 13.6l25-1.2c0-5.3-.601-12.4-9.9-12.4Zm-705.7-7.0996c-2.3 4.099-4.1 8.399-5.4 12.899-10-.199-19.3-.5-28.8-.5s-18.8.4-28.3.5c2.3-4.1 4.1-8.399 5.4-12.899 10 .2 19.3.5 28.8.5s18.8-.401 28.3-.5ZM387.5 261.2937c-17.2 0-25.3 11.6-27 24.4l44.7-2.2c0-9.5-1.1-22.2-17.7-22.2Zm601.8999 0c-17.199 0-25.3 11.6-27 24.4l44.7-2.2c0-9.5-1.1-22.2-17.7-22.2Z" fill="#346D97"/>
    <path d="m217.8999 79.2935.953.9465.047-.0463 101.7 101.7v-70.3h34.1v88l-44.7-.1-92.008-92.0087-74.092 74.0085h-28.2l102.2-102.2Zm188.5002 32.3002v88h-28v-88h28Zm-36 0v88h-8v-88h8ZM367.8435 0l.9244.925.0321-.0314 188.7 188.6h-28.3L367.9169 28.21l-88.1784 88.179-14.142-14.142L367.8435 0ZM728.9173 11.1089c3.8 0 7.6.3 11.399.9 38.801 6.2 65.201 42.6 59 81.4-4.803 30.0603-31.2897 55.1102-62.1155 59.2304l-.0003 57.2543h-20l.0007-57.5914c-3.7483-.5562-8.2366-1.1925-11.8586-2.1334-10.3847 13.9908-25.4365 23.5474-42.1417 27.1407l-.0004 50.5843h-20l.0004-49.2001c-6.101-.4-12.101-1.6-17.801-3.6-37.2-12.7-57-53-44.4-90.2 12.7-37.2 53-57 90.201-44.4l-.9075-.2998.0139-.0174c.2603.0913.522.1848.785.2803l.0731.025c13.4397-17.7995 35.4727-29.3729 57.7519-29.3729Zm34.3 30.2c-22.6-18.9-57.249-14.896-76.149 7.704l.3831-.452.0489.0326c-3.6417 4.3125-6.6405 9.2679-8.7323 14.6021l-.2677.6979c-4.735-3.2198-10.6305-6.0961-16.1679-7.581l-.0325.0812c-20-5.5-41.4 1.2-54.8 17.1-19 22.5-16 56.2 6.5 75.1 22.5 19 56.201 16 75.1-6.5l.0199.0131c3.5232-4.4767 6.9318-10.206 8.8844-15.413 4.9 3.4 10.4 5.9 16.2 7.5l-.4587-.1297c19.7322 4.5327 43.0755-2.2343 56.0708-17.6552 18.901-22.6 16-56.2-6.599-75.1Z" fill="#60B2E6"/>
  </g>
</svg>
